# xmcd
#
# Track frame offsets: 
#        150
#        14972
#        37267
#        52572
#        64930
#        81547
#        97325
#        108715
#        125697
#        143027
#        156615
#        167062
#        189505
#        205802
#        223251
#        244418
#        259612
#        278066
#        298004
#        312749
#        326871
#
# Disc length: 4519 seconds
#
# Revision: 0
# Processed by: cddbd v1.5.2PL0 Copyright (c) Steve Scherf et al.
# Submitted via: ExactAudioCopy v0.99pb5
#
DISCID=6211a515
DTITLE=Various Artist - The Blues Box [CD 5 of 7)
DYEAR=2009
DGENRE=Blues
TTITLE0=Big Bill Broonzy - Glory Of Love
TTITLE1=Big Bill Broonzy - Careless Love
TTITLE2=Big Bill Broonzy - I Get The Blues When It Rains
TTITLE3=Big Bill Broonzy - My Name Is Lee Conley Broonzy
TTITLE4=Big Bill Broonzy - Take This Hammer
TTITLE5=Big Bill Broonzy - See See Rider
TTITLE6=Big Bill Broonzy - Diggin' My Potatoes
TTITLE7=Big Bill Broonzy - Midnight Special
TTITLE8=Big Bill Broonzy - Keep Your Hands Off Her
TTITLE9=Big Bill Broonzy - I Got A Girl
TTITLE10=Big Bill Broonzy - You Better Mind
TTITLE11=Big Bill Broonzy - I Love You So Much
TTITLE12=Big Bill Broonzy - Sixteen Tons
TTITLE13=Big Bill Broonzy - Black Brown And White
TTITLE14=Big Bill Broonzy - Goodnight Irene
TTITLE15=Big Bill Broonzy - Dust My Broom
TTITLE16=John Henry Barbee - I Heard My Baby
TTITLE17=John Henry Barbee - I Ain't Gonna Pick Up No More Cotton
TTITLE18=John Henry Barbee - Miss Nelly Grey
TTITLE19=John Henry Barbee - Tell Me Baby
TTITLE20=John Henry Barbee - Jump Blues
EXTD=
EXTT0=
EXTT1=
EXTT2=
EXTT3=
EXTT4=
EXTT5=
EXTT6=
EXTT7=
EXTT8=
EXTT9=
EXTT10=
EXTT11=
EXTT12=
EXTT13=
EXTT14=
EXTT15=
EXTT16=
EXTT17=
EXTT18=
EXTT19=
EXTT20=
PLAYORDER=
